<svg width="576" height="106" viewBox="0 0 576 106" fill="none" xmlns="http://www.w3.org/2000/svg">
<path d="M11.9195 19.46H23.0041L39.3255 66.1113L55.6469 19.46H66.7315L43.7768 83H34.8742L11.9195 19.46ZM5.9408 19.46H16.9818L18.9892 64.933V83H5.9408V19.46ZM61.6693 19.46H72.7538V83H59.6618V64.933L61.6693 19.46ZM108.932 72.3518V51.3173C108.932 49.8044 108.684 48.5097 108.19 47.4333C107.695 46.3277 106.924 45.4695 105.877 44.8585C104.858 44.2476 103.535 43.9421 101.905 43.9421C100.509 43.9421 99.3016 44.1894 98.2833 44.684C97.2651 45.1495 96.4795 45.8332 95.9268 46.735C95.374 47.6078 95.0976 48.6407 95.0976 49.8335H82.5292C82.5292 47.826 82.9947 45.9204 83.9257 44.1166C84.8567 42.3128 86.2096 40.7273 87.9843 39.3599C89.759 37.9634 91.8682 36.8724 94.3121 36.0869C96.785 35.3013 99.5489 34.9086 102.604 34.9086C106.269 34.9086 109.528 35.5195 112.379 36.7415C115.23 37.9634 117.47 39.7963 119.1 42.2401C120.758 44.684 121.587 47.7388 121.587 51.4045V71.6099C121.587 74.1992 121.747 76.3231 122.067 77.9814C122.387 79.6106 122.853 81.0362 123.464 82.2581V83H110.764C110.153 81.7199 109.688 80.1198 109.368 78.1996C109.077 76.2503 108.932 74.3011 108.932 72.3518ZM110.59 54.2411L110.677 61.3545H103.651C101.993 61.3545 100.553 61.5436 99.3307 61.9218C98.1088 62.3 97.105 62.8383 96.3195 63.5365C95.534 64.2056 94.9521 64.9912 94.5739 65.8931C94.2248 66.795 94.0502 67.7841 94.0502 68.8606C94.0502 69.9371 94.2975 70.9117 94.7921 71.7845C95.2867 72.6282 95.9995 73.2973 96.9305 73.7919C97.8615 74.2574 98.9525 74.4902 100.203 74.4902C102.095 74.4902 103.738 74.112 105.135 73.3555C106.531 72.5991 107.608 71.6681 108.364 70.5626C109.15 69.457 109.557 68.4096 109.586 67.4205L112.903 72.7446C112.437 73.9374 111.797 75.1739 110.983 76.454C110.197 77.7341 109.193 78.9415 107.971 80.0761C106.75 81.1817 105.28 82.0981 103.564 82.8254C101.847 83.5237 99.8107 83.8728 97.4542 83.8728C94.4575 83.8728 91.7373 83.2764 89.2935 82.0836C86.8787 80.8616 84.9585 79.1888 83.533 77.0649C82.1365 74.912 81.4382 72.4682 81.4382 69.7334C81.4382 67.2605 81.9037 65.0639 82.8347 63.1437C83.7657 61.2236 85.1331 59.6089 86.9369 58.2997C88.7698 56.9614 91.0536 55.9577 93.7884 55.2885C96.5232 54.5903 99.6944 54.2411 103.302 54.2411H110.59ZM150.782 74.0538C152.324 74.0538 153.692 73.7628 154.885 73.181C156.077 72.57 157.008 71.7263 157.678 70.6498C158.376 69.5443 158.739 68.2496 158.769 66.7659H170.595C170.566 70.0825 169.679 73.0355 167.933 75.6248C166.187 78.185 163.845 80.207 160.907 81.6908C157.968 83.1455 154.681 83.8728 151.044 83.8728C147.378 83.8728 144.178 83.2618 141.443 82.0399C138.738 80.818 136.483 79.1306 134.679 76.9777C132.875 74.7957 131.523 72.2645 130.621 69.3843C129.719 66.4749 129.268 63.3619 129.268 60.0453V58.7797C129.268 55.434 129.719 52.321 130.621 49.4407C131.523 46.5314 132.875 44.0003 134.679 41.8474C136.483 39.6653 138.738 37.9634 141.443 36.7415C144.149 35.5195 147.32 34.9086 150.957 34.9086C154.826 34.9086 158.216 35.6505 161.125 37.1342C164.064 38.618 166.362 40.7418 168.02 43.5057C169.708 46.2405 170.566 49.4844 170.595 53.2374H158.769C158.739 51.6664 158.405 50.2408 157.765 48.9607C157.154 47.6806 156.252 46.6623 155.059 45.9059C153.895 45.1204 152.455 44.7276 150.739 44.7276C148.906 44.7276 147.408 45.1204 146.244 45.9059C145.08 46.6623 144.178 47.7097 143.538 49.048C142.898 50.3572 142.447 51.8555 142.185 53.5429C141.953 55.2012 141.836 56.9468 141.836 58.7797V60.0453C141.836 61.8782 141.953 63.6383 142.185 65.3257C142.418 67.0132 142.854 68.5115 143.495 69.8207C144.164 71.1299 145.08 72.1627 146.244 72.9191C147.408 73.6756 148.92 74.0538 150.782 74.0538ZM190.146 15.9688V83H177.577V15.9688H190.146ZM188.357 57.7324H184.909C184.938 54.4448 185.374 51.4191 186.218 48.6552C187.062 45.8622 188.269 43.4475 189.84 41.4109C191.411 39.3453 193.288 37.7452 195.47 36.6105C197.681 35.4759 200.125 34.9086 202.801 34.9086C205.129 34.9086 207.238 35.2431 209.129 35.9123C211.049 36.5523 212.693 37.5997 214.061 39.0544C215.457 40.48 216.534 42.3565 217.29 44.684C218.046 47.0114 218.425 49.8335 218.425 53.1501V83H205.769V53.0629C205.769 50.9681 205.464 49.3244 204.853 48.1315C204.271 46.9096 203.412 46.0514 202.278 45.5568C201.172 45.0331 199.805 44.7712 198.176 44.7712C196.372 44.7712 194.83 45.1058 193.55 45.775C192.299 46.4441 191.295 47.3751 190.539 48.5679C189.782 49.7317 189.229 51.0991 188.88 52.6701C188.531 54.2411 188.357 55.9286 188.357 57.7324ZM253.468 72.3518V51.3173C253.468 49.8044 253.22 48.5097 252.726 47.4333C252.231 46.3277 251.46 45.4695 250.413 44.8585C249.395 44.2476 248.071 43.9421 246.442 43.9421C245.045 43.9421 243.838 44.1894 242.819 44.684C241.801 45.1495 241.016 45.8332 240.463 46.735C239.91 47.6078 239.634 48.6407 239.634 49.8335H227.065C227.065 47.826 227.531 45.9204 228.462 44.1166C229.393 42.3128 230.746 40.7273 232.52 39.3599C234.295 37.9634 236.404 36.8724 238.848 36.0869C241.321 35.3013 244.085 34.9086 247.14 34.9086C250.806 34.9086 254.064 35.5195 256.915 36.7415C259.766 37.9634 262.007 39.7963 263.636 42.2401C265.294 44.684 266.123 47.7388 266.123 51.4045V71.6099C266.123 74.1992 266.283 76.3231 266.603 77.9814C266.923 79.6106 267.389 81.0362 268 82.2581V83H255.301C254.69 81.7199 254.224 80.1198 253.904 78.1996C253.613 76.2503 253.468 74.3011 253.468 72.3518ZM255.126 54.2411L255.213 61.3545H248.187C246.529 61.3545 245.089 61.5436 243.867 61.9218C242.645 62.3 241.641 62.8383 240.856 63.5365C240.07 64.2056 239.488 64.9912 239.11 65.8931C238.761 66.795 238.586 67.7841 238.586 68.8606C238.586 69.9371 238.834 70.9117 239.328 71.7845C239.823 72.6282 240.536 73.2973 241.467 73.7919C242.398 74.2574 243.489 74.4902 244.74 74.4902C246.631 74.4902 248.274 74.112 249.671 73.3555C251.067 72.5991 252.144 71.6681 252.9 70.5626C253.686 69.457 254.093 68.4096 254.122 67.4205L257.439 72.7446C256.973 73.9374 256.333 75.1739 255.519 76.454C254.733 77.7341 253.729 78.9415 252.508 80.0761C251.286 81.1817 249.816 82.0981 248.1 82.8254C246.383 83.5237 244.347 83.8728 241.99 83.8728C238.994 83.8728 236.273 83.2764 233.83 82.0836C231.415 80.8616 229.495 79.1888 228.069 77.0649C226.673 74.912 225.974 72.4682 225.974 69.7334C225.974 67.2605 226.44 65.0639 227.371 63.1437C228.302 61.2236 229.669 59.6089 231.473 58.2997C233.306 56.9614 235.59 55.9577 238.325 55.2885C241.059 54.5903 244.23 54.2411 247.838 54.2411H255.126ZM303.697 72.7009V15.9688H316.353V83H304.963L303.697 72.7009ZM273.848 59.958V59.0416C273.848 55.434 274.255 52.161 275.07 49.2225C275.884 46.255 277.077 43.7093 278.648 41.5855C280.219 39.4617 282.154 37.8179 284.452 36.6542C286.751 35.4904 289.369 34.9086 292.307 34.9086C295.071 34.9086 297.486 35.4904 299.552 36.6542C301.646 37.8179 303.421 39.4762 304.876 41.6292C306.359 43.753 307.552 46.2696 308.454 49.1789C309.356 52.0591 310.011 55.2158 310.418 58.6488V60.6562C310.011 63.9438 309.356 66.9986 308.454 69.8207C307.552 72.6427 306.359 75.1157 304.876 77.2395C303.421 79.3342 301.646 80.9635 299.552 82.1272C297.457 83.2909 295.013 83.8728 292.22 83.8728C289.282 83.8728 286.663 83.2764 284.365 82.0836C282.096 80.8907 280.175 79.2179 278.604 77.0649C277.062 74.912 275.884 72.3809 275.07 69.4716C274.255 66.5622 273.848 63.391 273.848 59.958ZM286.416 59.0416V59.958C286.416 61.9073 286.561 63.7256 286.852 65.413C287.172 67.1004 287.682 68.5988 288.38 69.908C289.107 71.1881 290.038 72.1918 291.173 72.9191C292.336 73.6174 293.747 73.9665 295.406 73.9665C297.559 73.9665 299.333 73.4865 300.73 72.5264C302.126 71.5372 303.188 70.1843 303.916 68.4678C304.672 66.7513 305.108 64.773 305.225 62.5328V56.8159C305.138 54.983 304.876 53.3393 304.439 51.8846C304.032 50.4008 303.421 49.1353 302.606 48.0879C301.821 47.0405 300.832 46.2259 299.639 45.644C298.475 45.0622 297.093 44.7712 295.493 44.7712C293.864 44.7712 292.467 45.1495 291.304 45.9059C290.14 46.6332 289.194 47.6369 288.467 48.9171C287.769 50.1972 287.245 51.71 286.896 53.4556C286.576 55.1721 286.416 57.0341 286.416 59.0416ZM324.165 59.8707V58.9543C324.165 55.4922 324.659 52.3064 325.648 49.3971C326.638 46.4587 328.078 43.913 329.969 41.7601C331.86 39.6072 334.187 37.9343 336.951 36.7415C339.715 35.5195 342.886 34.9086 346.465 34.9086C350.043 34.9086 353.229 35.5195 356.022 36.7415C358.815 37.9343 361.157 39.6072 363.048 41.7601C364.968 43.913 366.423 46.4587 367.412 49.3971C368.401 52.3064 368.896 55.4922 368.896 58.9543V59.8707C368.896 63.3038 368.401 66.4895 367.412 69.4279C366.423 72.3373 364.968 74.8829 363.048 77.0649C361.157 79.2179 358.829 80.8907 356.066 82.0836C353.302 83.2764 350.131 83.8728 346.552 83.8728C342.974 83.8728 339.788 83.2764 336.995 82.0836C334.231 80.8907 331.889 79.2179 329.969 77.0649C328.078 74.8829 326.638 72.3373 325.648 69.4279C324.659 66.4895 324.165 63.3038 324.165 59.8707ZM336.733 58.9543V59.8707C336.733 61.8491 336.908 63.6965 337.257 65.413C337.606 67.1295 338.159 68.6424 338.915 69.9516C339.701 71.2317 340.719 72.2354 341.97 72.9628C343.221 73.6901 344.748 74.0538 346.552 74.0538C348.298 74.0538 349.796 73.6901 351.047 72.9628C352.298 72.2354 353.302 71.2317 354.058 69.9516C354.815 68.6424 355.367 67.1295 355.716 65.413C356.095 63.6965 356.284 61.8491 356.284 59.8707V58.9543C356.284 57.0341 356.095 55.2303 355.716 53.5429C355.367 51.8264 354.8 50.3135 354.015 49.0043C353.258 47.666 352.254 46.6187 351.003 45.8622C349.752 45.1058 348.239 44.7276 346.465 44.7276C344.69 44.7276 343.177 45.1058 341.926 45.8622C340.704 46.6187 339.701 47.666 338.915 49.0043C338.159 50.3135 337.606 51.8264 337.257 53.5429C336.908 55.2303 336.733 57.0341 336.733 58.9543Z" fill="white"/>
<g filter="url(#filter0_d_1_146)">
<path d="M381.9 61.3508H365.71V51.139H381.9C384.402 51.139 386.439 50.7317 388.01 49.9171C389.581 49.0733 390.73 47.9096 391.458 46.4258C392.185 44.9421 392.549 43.2692 392.549 41.4072C392.549 39.5162 392.185 37.756 391.458 36.1268C390.73 34.4975 389.581 33.1883 388.01 32.1992C386.439 31.21 384.402 30.7154 381.9 30.7154H370.248V84H357.156V20.46H381.9C386.875 20.46 391.138 21.3619 394.687 23.1656C398.265 24.9403 401 27.3987 402.891 30.5408C404.782 33.6829 405.728 37.276 405.728 41.3199C405.728 45.4221 404.782 48.9715 402.891 51.9681C401 54.9648 398.265 57.2777 394.687 58.9069C391.138 60.5362 386.875 61.3508 381.9 61.3508ZM427.242 36.7814V84H414.63V36.7814H427.242ZM413.845 24.4749C413.845 22.642 414.485 21.1291 415.765 19.9363C417.045 18.7434 418.762 18.147 420.915 18.147C423.038 18.147 424.74 18.7434 426.021 19.9363C427.33 21.1291 427.984 22.642 427.984 24.4749C427.984 26.3077 427.33 27.8206 426.021 29.0134C424.74 30.2063 423.038 30.8027 420.915 30.8027C418.762 30.8027 417.045 30.2063 415.765 29.0134C414.485 27.8206 413.845 26.3077 413.845 24.4749ZM475.203 74.181V84H439.331V74.181H475.203ZM474.505 44.0256L444.393 84H435.971V76.5375L465.951 36.7814H474.505V44.0256ZM470.053 36.7814V46.644H436.669V36.7814H470.053ZM520.676 74.181V84H484.804V74.181H520.676ZM519.978 44.0256L489.866 84H481.444V76.5375L511.424 36.7814H519.978V44.0256ZM515.526 36.7814V46.644H482.142V36.7814H515.526ZM554.061 73.3518V52.3173C554.061 50.8044 553.813 49.5097 553.319 48.4333C552.824 47.3277 552.053 46.4695 551.006 45.8585C549.988 45.2476 548.664 44.9421 547.035 44.9421C545.638 44.9421 544.431 45.1894 543.413 45.684C542.394 46.1495 541.609 46.8332 541.056 47.735C540.503 48.6078 540.227 49.6407 540.227 50.8335H527.658C527.658 48.826 528.124 46.9204 529.055 45.1166C529.986 43.3128 531.339 41.7273 533.113 40.3599C534.888 38.9634 536.997 37.8724 539.441 37.0869C541.914 36.3013 544.678 35.9086 547.733 35.9086C551.399 35.9086 554.657 36.5195 557.508 37.7415C560.359 38.9634 562.6 40.7963 564.229 43.2401C565.887 45.684 566.716 48.7388 566.716 52.4045V72.6099C566.716 75.1992 566.876 77.3231 567.196 78.9814C567.516 80.6106 567.982 82.0362 568.593 83.2581V84H555.894C555.283 82.7199 554.817 81.1198 554.497 79.1996C554.206 77.2503 554.061 75.3011 554.061 73.3518ZM555.719 55.2411L555.806 62.3545H548.78C547.122 62.3545 545.682 62.5436 544.46 62.9218C543.238 63.3 542.234 63.8383 541.449 64.5365C540.663 65.2056 540.081 65.9912 539.703 66.8931C539.354 67.795 539.179 68.7841 539.179 69.8606C539.179 70.9371 539.427 71.9117 539.921 72.7845C540.416 73.6282 541.129 74.2973 542.06 74.7919C542.991 75.2574 544.082 75.4902 545.333 75.4902C547.224 75.4902 548.868 75.112 550.264 74.3555C551.661 73.5991 552.737 72.6681 553.493 71.5626C554.279 70.457 554.686 69.4096 554.715 68.4205L558.032 73.7446C557.566 74.9374 556.926 76.1739 556.112 77.454C555.326 78.7341 554.323 79.9415 553.101 81.0761C551.879 82.1817 550.41 83.0981 548.693 83.8254C546.976 84.5237 544.94 84.8728 542.583 84.8728C539.587 84.8728 536.867 84.2764 534.423 83.0836C532.008 81.8616 530.088 80.1888 528.662 78.0649C527.266 75.912 526.567 73.4682 526.567 70.7334C526.567 68.2605 527.033 66.0639 527.964 64.1437C528.895 62.2236 530.262 60.6089 532.066 59.2997C533.899 57.9614 536.183 56.9577 538.918 56.2885C541.652 55.5903 544.824 55.2411 548.431 55.2411H555.719Z" fill="#FF3F4B"/>
</g>
<defs>
<filter id="filter0_d_1_146" x="348.156" y="8.14697" width="227.436" height="82.7258" filterUnits="userSpaceOnUse" color-interpolation-filters="sRGB">
<feFlood flood-opacity="0" result="BackgroundImageFix"/>
<feColorMatrix in="SourceAlpha" type="matrix" values="0 0 0 0 0 0 0 0 0 0 0 0 0 0 0 0 0 0 127 0" result="hardAlpha"/>
<feOffset dx="-1" dy="-2"/>
<feGaussianBlur stdDeviation="4"/>
<feComposite in2="hardAlpha" operator="out"/>
<feColorMatrix type="matrix" values="0 0 0 0 0 0 0 0 0 0 0 0 0 0 0 0 0 0 0.5 0"/>
<feBlend mode="normal" in2="BackgroundImageFix" result="effect1_dropShadow_1_146"/>
<feBlend mode="normal" in="SourceGraphic" in2="effect1_dropShadow_1_146" result="shape"/>
</filter>
</defs>
</svg>
